<mxfile host="app.diagrams.net" modified="2023-10-16T03:42:05.797Z" agent="Mozilla/5.0 (Windows NT 10.0; Win64; x64) AppleWebKit/537.36 (KHTML, like Gecko) Chrome/117.0.0.0 Safari/537.36" etag="Xm1wTDZkpDqgeR4W3AT9" version="22.0.4" type="device">
  <diagram name="Page-1" id="8Hb36y1JXZrqPbE_VS-C">
    <mxGraphModel dx="1050" dy="566" grid="1" gridSize="10" guides="1" tooltips="1" connect="1" arrows="1" fold="1" page="1" pageScale="1" pageWidth="850" pageHeight="1100" math="0" shadow="0">
      <root>
        <mxCell id="0" />
        <mxCell id="1" parent="0" />
        <mxCell id="xniGktHkJc45YXbiJrXt-3" value="" style="edgeStyle=orthogonalEdgeStyle;rounded=0;orthogonalLoop=1;jettySize=auto;html=1;" edge="1" parent="1" source="xniGktHkJc45YXbiJrXt-1" target="xniGktHkJc45YXbiJrXt-2">
          <mxGeometry relative="1" as="geometry" />
        </mxCell>
        <mxCell id="xniGktHkJc45YXbiJrXt-1" value="Run program" style="ellipse;whiteSpace=wrap;html=1;" vertex="1" parent="1">
          <mxGeometry x="365" y="20" width="120" height="80" as="geometry" />
        </mxCell>
        <mxCell id="xniGktHkJc45YXbiJrXt-5" value="" style="edgeStyle=orthogonalEdgeStyle;rounded=0;orthogonalLoop=1;jettySize=auto;html=1;" edge="1" parent="1" source="xniGktHkJc45YXbiJrXt-2" target="xniGktHkJc45YXbiJrXt-4">
          <mxGeometry relative="1" as="geometry" />
        </mxCell>
        <mxCell id="xniGktHkJc45YXbiJrXt-7" value="" style="edgeStyle=orthogonalEdgeStyle;rounded=0;orthogonalLoop=1;jettySize=auto;html=1;" edge="1" parent="1" source="xniGktHkJc45YXbiJrXt-2" target="xniGktHkJc45YXbiJrXt-6">
          <mxGeometry relative="1" as="geometry" />
        </mxCell>
        <mxCell id="xniGktHkJc45YXbiJrXt-2" value="Welcome Screen" style="whiteSpace=wrap;html=1;" vertex="1" parent="1">
          <mxGeometry x="365" y="190" width="120" height="60" as="geometry" />
        </mxCell>
        <mxCell id="xniGktHkJc45YXbiJrXt-9" value="Successful Login" style="edgeStyle=orthogonalEdgeStyle;rounded=0;orthogonalLoop=1;jettySize=auto;html=1;" edge="1" parent="1" source="xniGktHkJc45YXbiJrXt-4" target="xniGktHkJc45YXbiJrXt-8">
          <mxGeometry x="-0.6444" relative="1" as="geometry">
            <Array as="points">
              <mxPoint x="240" y="350" />
            </Array>
            <mxPoint as="offset" />
          </mxGeometry>
        </mxCell>
        <mxCell id="xniGktHkJc45YXbiJrXt-15" value="Unsuccessful Login" style="edgeStyle=orthogonalEdgeStyle;rounded=0;orthogonalLoop=1;jettySize=auto;html=1;entryX=0.5;entryY=0;entryDx=0;entryDy=0;" edge="1" parent="1" source="xniGktHkJc45YXbiJrXt-4" target="xniGktHkJc45YXbiJrXt-4">
          <mxGeometry x="0.2378" y="10" relative="1" as="geometry">
            <mxPoint x="210" y="110" as="targetPoint" />
            <Array as="points">
              <mxPoint x="121" y="220" />
              <mxPoint x="121" y="120" />
              <mxPoint x="225" y="120" />
            </Array>
            <mxPoint as="offset" />
          </mxGeometry>
        </mxCell>
        <mxCell id="xniGktHkJc45YXbiJrXt-4" value="Login" style="shape=parallelogram;perimeter=parallelogramPerimeter;whiteSpace=wrap;html=1;fixedSize=1;" vertex="1" parent="1">
          <mxGeometry x="165" y="190" width="120" height="60" as="geometry" />
        </mxCell>
        <mxCell id="xniGktHkJc45YXbiJrXt-11" value="Successful Sign up" style="edgeStyle=orthogonalEdgeStyle;rounded=0;orthogonalLoop=1;jettySize=auto;html=1;entryX=1;entryY=0.5;entryDx=0;entryDy=0;exitX=0.25;exitY=1;exitDx=0;exitDy=0;" edge="1" parent="1" source="xniGktHkJc45YXbiJrXt-6" target="xniGktHkJc45YXbiJrXt-8">
          <mxGeometry x="-0.619" y="5" relative="1" as="geometry">
            <mxPoint x="625" y="360" as="targetPoint" />
            <Array as="points">
              <mxPoint x="595" y="350" />
            </Array>
            <mxPoint as="offset" />
          </mxGeometry>
        </mxCell>
        <mxCell id="xniGktHkJc45YXbiJrXt-13" value="Unsuccessful Sign up" style="edgeStyle=orthogonalEdgeStyle;rounded=0;orthogonalLoop=1;jettySize=auto;html=1;exitX=1;exitY=0.5;exitDx=0;exitDy=0;entryX=0.5;entryY=0;entryDx=0;entryDy=0;" edge="1" parent="1" target="xniGktHkJc45YXbiJrXt-6">
          <mxGeometry x="0.2246" y="-10" relative="1" as="geometry">
            <mxPoint x="675" y="219.5" as="sourcePoint" />
            <mxPoint x="630" y="120" as="targetPoint" />
            <Array as="points">
              <mxPoint x="720" y="220" />
              <mxPoint x="720" y="120" />
              <mxPoint x="625" y="120" />
            </Array>
            <mxPoint x="1" as="offset" />
          </mxGeometry>
        </mxCell>
        <mxCell id="xniGktHkJc45YXbiJrXt-6" value="Sign Up" style="shape=parallelogram;perimeter=parallelogramPerimeter;whiteSpace=wrap;html=1;fixedSize=1;" vertex="1" parent="1">
          <mxGeometry x="565" y="190" width="120" height="60" as="geometry" />
        </mxCell>
        <mxCell id="xniGktHkJc45YXbiJrXt-16" value="Logout" style="edgeStyle=orthogonalEdgeStyle;rounded=0;orthogonalLoop=1;jettySize=auto;html=1;" edge="1" parent="1" source="xniGktHkJc45YXbiJrXt-8" target="xniGktHkJc45YXbiJrXt-2">
          <mxGeometry relative="1" as="geometry" />
        </mxCell>
        <mxCell id="xniGktHkJc45YXbiJrXt-18" value="" style="edgeStyle=orthogonalEdgeStyle;rounded=0;orthogonalLoop=1;jettySize=auto;html=1;exitX=0.25;exitY=1;exitDx=0;exitDy=0;entryX=0.25;entryY=0;entryDx=0;entryDy=0;" edge="1" parent="1" source="xniGktHkJc45YXbiJrXt-8" target="xniGktHkJc45YXbiJrXt-19">
          <mxGeometry relative="1" as="geometry">
            <mxPoint x="425" y="410" as="targetPoint" />
          </mxGeometry>
        </mxCell>
        <mxCell id="xniGktHkJc45YXbiJrXt-8" value="Landing Page" style="whiteSpace=wrap;html=1;" vertex="1" parent="1">
          <mxGeometry x="365" y="320" width="120" height="60" as="geometry" />
        </mxCell>
        <mxCell id="xniGktHkJc45YXbiJrXt-20" value="" style="edgeStyle=orthogonalEdgeStyle;rounded=0;orthogonalLoop=1;jettySize=auto;html=1;" edge="1" parent="1" target="xniGktHkJc45YXbiJrXt-19">
          <mxGeometry relative="1" as="geometry">
            <mxPoint x="425" y="470" as="sourcePoint" />
          </mxGeometry>
        </mxCell>
        <mxCell id="xniGktHkJc45YXbiJrXt-24" value="" style="edgeStyle=orthogonalEdgeStyle;rounded=0;orthogonalLoop=1;jettySize=auto;html=1;entryX=0.75;entryY=1;entryDx=0;entryDy=0;exitX=0.75;exitY=0;exitDx=0;exitDy=0;" edge="1" parent="1" source="xniGktHkJc45YXbiJrXt-19" target="xniGktHkJc45YXbiJrXt-8">
          <mxGeometry relative="1" as="geometry">
            <mxPoint x="600" y="350" as="targetPoint" />
            <Array as="points" />
          </mxGeometry>
        </mxCell>
        <mxCell id="xniGktHkJc45YXbiJrXt-19" value="Edit Parameters" style="shape=parallelogram;perimeter=parallelogramPerimeter;whiteSpace=wrap;html=1;fixedSize=1;" vertex="1" parent="1">
          <mxGeometry x="365" y="410" width="120" height="60" as="geometry" />
        </mxCell>
      </root>
    </mxGraphModel>
  </diagram>
</mxfile>
